<?xml version="1.0" encoding="UTF-8" standalone="no"?><!DOCTYPE svg PUBLIC "-//W3C//DTD SVG 1.1//EN" "http://www.w3.org/Graphics/SVG/1.1/DTD/svg11.dtd"><svg width="100%" height="100%" viewBox="0 0 100 100" version="1.1" xmlns="http://www.w3.org/2000/svg" xmlns:xlink="http://www.w3.org/1999/xlink" xml:space="preserve" xmlns:serif="http://www.serif.com/" style="fill-rule:evenodd;clip-rule:evenodd;stroke-linecap:round;stroke-linejoin:round;"><g><path d="M75,27.083l0,45.833c0,4.599 -3.734,8.333 -8.333,8.333l-33.333,0c-4.599,0 -8.333,-3.734 -8.333,-8.333l0,-45.833c0,-4.599 3.734,-8.333 8.333,-8.333l33.333,0c4.599,0 8.333,3.734 8.333,8.333Z" style="fill:none;stroke:#222;stroke-width:5px;"/><path d="M33.333,35.417l4.167,4.167l6.25,-8.333" style="fill:none;fill-rule:nonzero;stroke:#222;stroke-width:5px;"/><path d="M54.167,35.417l12.5,0" style="fill:none;fill-rule:nonzero;stroke:#222;stroke-width:5px;"/><path d="M33.333,50l4.167,4.167l6.25,-8.333" style="fill:none;fill-rule:nonzero;stroke:#222;stroke-width:5px;"/><path d="M54.167,50l12.5,0" style="fill:none;fill-rule:nonzero;stroke:#222;stroke-width:5px;"/><path d="M33.333,64.583l4.167,4.167l6.25,-8.333" style="fill:none;fill-rule:nonzero;stroke:#222;stroke-width:5px;"/><path d="M54.167,64.583l12.5,0" style="fill:none;fill-rule:nonzero;stroke:#222;stroke-width:5px;"/></g></svg>