<?xml version="1.0" encoding="UTF-8" standalone="no"?><!DOCTYPE svg PUBLIC "-//W3C//DTD SVG 1.1//EN" "http://www.w3.org/Graphics/SVG/1.1/DTD/svg11.dtd"><svg width="100%" height="100%" viewBox="0 0 100 100" version="1.1" xmlns="http://www.w3.org/2000/svg" xmlns:xlink="http://www.w3.org/1999/xlink" xml:space="preserve" xmlns:serif="http://www.serif.com/" style="fill-rule:evenodd;clip-rule:evenodd;stroke-linejoin:round;stroke-miterlimit:2;"><g><path d="M18.427,51.786l0,-24.926l22.118,0c-1.361,11.968 -7.294,20.827 -11.012,25.331c-0.602,-0.26 -1.267,-0.405 -1.966,-0.405l-9.139,0Z" style="fill-rule:nonzero;"/><path d="M27.567,61.756l-9.139,0l0,14.955l15.461,0c-0.855,-6.602 -3.24,-11.846 -5.113,-15.118c-0.388,0.097 -0.789,0.163 -1.205,0.163l-0.004,0Z" style="fill-rule:nonzero;"/><path d="M29.228,56.771c0,-0.917 -0.744,-1.662 -1.662,-1.662l-9.139,0l0,3.323l9.139,0c0.917,0 1.662,-0.744 1.662,-1.662Z" style="fill-rule:nonzero;"/><path d="M72.432,51.786c-0.699,0 -1.364,0.145 -1.966,0.405c-3.718,-4.504 -9.652,-13.363 -11.012,-25.331l22.118,0l0,24.926l-9.139,-0Z" style="fill-rule:nonzero;"/><path d="M71.224,61.593c-1.873,3.271 -4.258,8.516 -5.113,15.118l15.461,0l0,-14.955l-9.139,0c-0.419,0 -0.817,-0.066 -1.205,-0.163l-0.004,-0Z" style="fill-rule:nonzero;"/><path d="M72.432,55.109l9.139,0l0,3.323l-9.139,0c-0.917,0 -1.662,-0.744 -1.662,-1.662c0,-0.917 0.744,-1.662 1.662,-1.662Z" style="fill-rule:nonzero;"/><path d="M17.597,18.552l64.807,0c1.378,0 2.493,1.378 2.493,2.493c0,1.378 -1.115,2.493 -2.493,2.493l-64.807,0c-1.378,0 -2.493,-1.378 -2.493,-2.493c0,-1.378 1.115,-2.493 2.493,-2.493Z" style="fill-rule:nonzero;"/><path d="M17.597,80.035l64.807,0c1.378,0 2.493,1.378 2.493,2.493c0,1.378 -1.115,2.493 -2.493,2.493l-64.807,0c-1.378,0 -2.493,-1.378 -2.493,-2.493c0,-1.378 1.115,-2.493 2.493,-2.493Z" style="fill-rule:nonzero;"/></g></svg>